<?xml version="1.0" encoding="utf-8"?>
<!-- Generator: Adobe Illustrator 16.0.0, SVG Export Plug-In . SVG Version: 6.00 Build 0)  -->
<!DOCTYPE svg PUBLIC "-//W3C//DTD SVG 1.1//EN" "http://www.w3.org/Graphics/SVG/1.1/DTD/svg11.dtd">
<svg version="1.1" xmlns="http://www.w3.org/2000/svg" xmlns:xlink="http://www.w3.org/1999/xlink" x="0px" y="0px" width="60px"
	 height="60px" viewBox="0 0 60 60" enable-background="new 0 0 60 60" xml:space="preserve">
<g id="圖層_3">
</g>
<g id="圖層_1">
	<g>
		<path fill="none" stroke="#808080" stroke-linejoin="round" stroke-miterlimit="10" d="M39.583,17.512
			c0,2.393-1.939,4.333-4.333,4.333s-4.333-1.94-4.333-4.333c0-2.393,4.333-8.76,4.333-8.76S39.583,15.119,39.583,17.512z"/>
		<g>
			<path fill="#808080" d="M19.53,32.978c-0.669,0.095-1.366,0.15-2.089,0.15c-4.518,0-8.193-1.975-8.193-4.403
				s3.676-4.404,8.193-4.404c4.519,0,8.195,1.976,8.195,4.404c0,0.357-0.088,0.703-0.238,1.036c0.292-0.104,0.589-0.206,0.892-0.302
				c0.057-0.24,0.097-0.483,0.097-0.734c0-2.89-3.93-5.154-8.945-5.154c-5.015,0-8.943,2.264-8.943,5.154
				c0,2.89,3.929,5.153,8.943,5.153c0.396,0,0.782-0.019,1.163-0.046C18.889,33.539,19.201,33.255,19.53,32.978z"/>
			<path fill="#808080" d="M17.441,26.683c-1.941,0-3.462,0.897-3.462,2.042c0,1.145,1.521,2.042,3.462,2.042
				c1.942,0,3.464-0.897,3.464-2.042C20.905,27.58,19.384,26.683,17.441,26.683z M17.441,30.267c-1.605,0-2.962-0.706-2.962-1.542
				c0-0.836,1.356-1.542,2.962-1.542c1.606,0,2.964,0.706,2.964,1.542C20.405,29.561,19.048,30.267,17.441,30.267z"/>
			<path fill="#808080" d="M17.033,35.979C9.82,35.861,4.017,32.656,4.017,28.725c0-4.006,6.022-7.265,13.426-7.265
				c7.206,0,13.088,3.091,13.396,6.95c0.327-0.05,0.654-0.101,0.989-0.142c-0.418-4.345-6.701-7.808-14.386-7.808
				c-7.954,0-14.426,3.708-14.426,8.265c0,4.394,6.021,7.988,13.581,8.241C16.715,36.631,16.864,36.303,17.033,35.979z"/>
		</g>
		<path fill="#808080" d="M36.353,50.974c-11.25,0-20.403-5.203-20.403-11.599s9.153-11.599,20.403-11.599
			s20.403,5.203,20.403,11.599S47.603,50.974,36.353,50.974z M36.353,28.776c-10.699,0-19.403,4.754-19.403,10.599
			s8.704,10.599,19.403,10.599s19.403-4.754,19.403-10.599S47.052,28.776,36.353,28.776z"/>
		<path fill="#808080" d="M36.353,47.598c-7.949,0-14.416-3.689-14.416-8.223c0-4.534,6.467-8.222,14.416-8.222
			c7.948,0,14.415,3.688,14.415,8.222C50.768,43.909,44.301,47.598,36.353,47.598z M36.353,31.985
			c-7.489,0-13.582,3.315-13.582,7.389c0,4.075,6.093,7.39,13.582,7.39s13.581-3.315,13.581-7.39
			C49.934,35.3,43.842,31.985,36.353,31.985z"/>
		<path fill="#808080" d="M36.353,44.222c-4.726,0-8.427-2.129-8.427-4.847s3.701-4.847,8.427-4.847s8.427,2.129,8.427,4.847
			S41.078,44.222,36.353,44.222z M36.353,35.195c-4.279,0-7.761,1.875-7.761,4.18c0,2.305,3.481,4.18,7.761,4.18
			s7.761-1.875,7.761-4.18C44.113,37.07,40.632,35.195,36.353,35.195z"/>
		<path fill="#808080" d="M36.353,40.846c-1.368,0-2.439-0.646-2.439-1.471c0-0.825,1.071-1.471,2.439-1.471
			s2.439,0.646,2.439,1.471C38.792,40.2,37.721,40.846,36.353,40.846z M36.353,38.404c-1.143,0-1.939,0.512-1.939,0.971
			c0,0.459,0.797,0.971,1.939,0.971s1.939-0.512,1.939-0.971C38.292,38.916,37.495,38.404,36.353,38.404z"/>
	</g>
</g>
<g id="圖層_2">
</g>
</svg>
