<?xml version="1.0" encoding="utf-8"?>
<!-- Generator: Adobe Illustrator 16.0.0, SVG Export Plug-In . SVG Version: 6.00 Build 0)  -->
<!DOCTYPE svg PUBLIC "-//W3C//DTD SVG 1.1//EN" "http://www.w3.org/Graphics/SVG/1.1/DTD/svg11.dtd">
<svg version="1.1" xmlns="http://www.w3.org/2000/svg" xmlns:xlink="http://www.w3.org/1999/xlink" x="0px" y="0px" width="60px"
	 height="60px" viewBox="0 0 60 60" enable-background="new 0 0 60 60" xml:space="preserve">
<g id="圖層_3">
</g>
<g id="圖層_1">
	<g>
		<g id="XMLID_151_">
			<defs>
				<polyline id="XMLID_152_" points="53.651,50.901 37.253,24.293 37.046,24.293 20.647,51.5 				"/>
			</defs>
			<clipPath id="XMLID_193_">
				<use xlink:href="#XMLID_152_"  overflow="visible"/>
			</clipPath>
			<g id="XMLID_153_" clip-path="url(#XMLID_193_)">
				
					<path id="XMLID_178_" fill="none" stroke="#808080" stroke-width="0.5" stroke-linecap="round" stroke-linejoin="round" stroke-miterlimit="10" d="
					M27.3,27.911c0,0,4.152,1.848,7.602,0.116c3.18-1.596,6.504-0.284,9.338,1.036"/>
				
					<path fill="none" stroke="#808080" stroke-width="0.5833" stroke-linecap="round" stroke-linejoin="round" stroke-miterlimit="10" d="
					M24.623,32.083c0,0,5.644,1.894,10.217-0.407c3.373-1.697,6.493,0.262,9.366,0.603c1.531,0.182,2.362,0.531,2.943,0.802"/>
				
					<path fill="none" stroke="#808080" stroke-width="0.6667" stroke-linecap="round" stroke-linejoin="round" stroke-miterlimit="10" d="
					M21.946,36.253c0,0,7.135,1.941,12.832-0.93c4.348-2.191,8.191,1.528,11.563,1.099c2.32-0.295,3.254,0.459,3.718,0.675"/>
				
					<path fill="none" stroke="#808080" stroke-width="0.75" stroke-linecap="round" stroke-linejoin="round" stroke-miterlimit="10" d="
					M19.27,40.424c0,0,8.625,1.988,15.446-1.452c5.323-2.686,9.829,1.851,13.76,1.595c3.144-0.205,4.144,0.386,4.492,0.548"/>
				
					<path fill="none" stroke="#808080" stroke-width="0.8333" stroke-linecap="round" stroke-linejoin="round" stroke-miterlimit="10" d="
					M16.593,44.596c0,0,10.117,2.034,18.062-1.976c6.3-3.179,11.481,2.602,15.957,2.091c3.939-0.45,5.034,0.313,5.267,0.421"/>
				
					<path fill="none" stroke="#808080" stroke-width="0.9167" stroke-linecap="round" stroke-linejoin="round" stroke-miterlimit="10" d="
					M13.916,48.766c0,0,11.608,2.081,20.677-2.498c7.274-3.673,13.127,3.344,18.153,2.587c4.729-0.712,5.926,0.24,6.042,0.294"/>
				<path id="XMLID_177_" fill="none" stroke="#808080" stroke-linecap="round" stroke-linejoin="round" stroke-miterlimit="10" d="
					M11.239,52.938c0,0,13.1,2.127,23.292-3.021c8.25-4.167,14.765,4.082,20.351,3.083c5.514-0.987,6.815,0.167,6.815,0.167"/>
			</g>
		</g>
		<polygon fill="none" points="31.019,34.238 32.648,31.519 29.37,31.561 		"/>
		<polygon fill="none" stroke="#808080" stroke-linecap="round" stroke-linejoin="round" stroke-miterlimit="10" points="
			32.648,31.702 37.044,24.549 37.251,24.549 41.647,31.584 50.288,31.38 36.29,8.549 36.114,8.549 25.743,25.668 29.37,31.653 		
			"/>
		<polygon fill="none" stroke="#808080" stroke-linecap="round" stroke-linejoin="round" stroke-miterlimit="10" points="
			20.524,17.549 20.349,17.549 6.349,40.48 27.554,40.111 31.019,34.283 		"/>
		<g>
			<defs>
				<polygon id="SVGID_13_" points="20.524,18.049 20.349,18.049 6.349,40.73 27.554,40.236 31.019,34.596 				"/>
			</defs>
			<clipPath id="SVGID_2_">
				<use xlink:href="#SVGID_13_"  overflow="visible"/>
			</clipPath>
			<g id="XMLID_143_" clip-path="url(#SVGID_2_)">
				<path id="XMLID_167_" fill="none" stroke="#808080" stroke-linecap="round" stroke-linejoin="round" stroke-miterlimit="10" d="
					M7.998,26.09c0,0,2.952-1.965,7.125-4.375c3.357-1.938,10.217-0.786,13.563,0.438"/>
				
					<path fill="none" stroke="#808080" stroke-width="0.9167" stroke-linecap="round" stroke-linejoin="round" stroke-miterlimit="10" d="
					M7.342,29.219c0,0,2.301-1.548,7.268-4.362c4.695-2.642,11.591-0.212,15.396,0.391"/>
				
					<path fill="none" stroke="#808080" stroke-width="0.8333" stroke-linecap="round" stroke-linejoin="round" stroke-miterlimit="10" d="
					M6.686,32.347c0,0,1.649-1.131,7.409-4.349c6.034-3.345,12.964,0.36,17.228,0.343"/>
				
					<path fill="none" stroke="#808080" stroke-width="0.75" stroke-linecap="round" stroke-linejoin="round" stroke-miterlimit="10" d="
					M6.029,35.476c0,0,0.998-0.715,7.551-4.336c7.373-4.048,14.338,0.933,19.061,0.296"/>
				
					<path fill="none" stroke="#808080" stroke-width="0.6667" stroke-linecap="round" stroke-linejoin="round" stroke-miterlimit="10" d="
					M5.373,38.604c0,0,0.347-0.298,7.693-4.323c8.711-4.752,15.713,1.505,20.895,0.249"/>
				
					<path fill="none" stroke="#808080" stroke-width="0.5833" stroke-linecap="round" stroke-linejoin="round" stroke-miterlimit="10" d="
					M4.717,41.733c0,0-0.305,0.118,7.836-4.309c10.049-5.456,17.086,2.077,22.727,0.201"/>
				
					<path id="XMLID_166_" fill="none" stroke="#808080" stroke-width="0.5" stroke-linecap="round" stroke-linejoin="round" stroke-miterlimit="10" d="
					M4.061,44.861c0,0-0.956,0.535,7.978-4.296c11.388-6.159,18.46,2.65,24.56,0.154"/>
			</g>
		</g>
		<polygon fill="none" stroke="#808080" stroke-linecap="round" stroke-linejoin="round" stroke-miterlimit="10" points="
			37.251,24.549 37.044,24.549 20.647,51.549 53.651,51.113 		"/>
		<g>
			<defs>
				<polygon id="SVGID_15_" points="32.648,31.952 37.044,25.049 37.251,25.049 41.647,31.834 50.288,31.755 36.29,9.049 
					36.114,9.049 25.743,25.918 29.37,31.903 				"/>
			</defs>
			<clipPath id="SVGID_4_">
				<use xlink:href="#SVGID_15_"  overflow="visible"/>
			</clipPath>
			<g id="XMLID_136_" clip-path="url(#SVGID_4_)">
				
					<path id="XMLID_159_" fill="none" stroke="#808080" stroke-width="0.5" stroke-linecap="round" stroke-linejoin="round" stroke-miterlimit="10" d="
					M53.114,22.25c0,0-4.797,7.241-13.666,9.653c-5,1.36-12.045,1.26-14.75,0"/>
				
					<path fill="none" stroke="#808080" stroke-width="0.5833" stroke-linecap="round" stroke-linejoin="round" stroke-miterlimit="10" d="
					M51.934,19.958c-0.543,0.525-5.186,6.865-13.212,8.758c-4.704,1.11-11.101,0.697-13.745-0.922"/>
				
					<path fill="none" stroke="#808080" stroke-width="0.6667" stroke-linecap="round" stroke-linejoin="round" stroke-miterlimit="10" d="
					M50.753,17.667c-1.087,1.049-5.582,6.475-12.758,7.863c-4.414,0.854-10.157,0.134-12.741-1.845"/>
				
					<path fill="none" stroke="#808080" stroke-width="0.75" stroke-linecap="round" stroke-linejoin="round" stroke-miterlimit="10" d="
					M49.572,15.375c-1.631,1.574-5.984,6.065-12.304,6.968c-4.127,0.589-9.214-0.429-11.737-2.767"/>
				
					<path fill="none" stroke="#808080" stroke-width="0.8333" stroke-linecap="round" stroke-linejoin="round" stroke-miterlimit="10" d="
					M48.392,13.083c-2.174,2.099-6.394,5.633-11.849,6.073c-3.844,0.311-8.271-0.992-10.734-3.689"/>
				
					<path fill="none" stroke="#808080" stroke-width="0.9167" stroke-linecap="round" stroke-linejoin="round" stroke-miterlimit="10" d="
					M47.211,10.792c-2.718,2.624-6.804,5.167-11.395,5.178c-3.562,0.008-7.327-1.555-9.729-4.611"/>
				<path id="XMLID_158_" fill="none" stroke="#808080" stroke-linecap="round" stroke-linejoin="round" stroke-miterlimit="10" d="
					M46.03,8.5c-6.119,5.907-14.65,6.062-19.666-1.25"/>
			</g>
		</g>
	</g>
</g>
<g id="圖層_2">
</g>
</svg>
