<?xml version="1.0" encoding="utf-8"?>
<!-- Generator: Adobe Illustrator 16.0.0, SVG Export Plug-In . SVG Version: 6.00 Build 0)  -->
<!DOCTYPE svg PUBLIC "-//W3C//DTD SVG 1.1//EN" "http://www.w3.org/Graphics/SVG/1.1/DTD/svg11.dtd">
<svg version="1.1" xmlns="http://www.w3.org/2000/svg" xmlns:xlink="http://www.w3.org/1999/xlink" x="0px" y="0px" width="60px"
	 height="60px" viewBox="0 0 60 60" enable-background="new 0 0 60 60" xml:space="preserve">
<g id="圖層_3">
</g>
<g id="圖層_1">
	<g>
		<g id="XMLID_179_">
			<defs>
				<path id="XMLID_180_" d="M19.184,40.724c7.483,6.889,20.438,7.728,21.678,6.41l-28.445-27.9
					C12.416,19.233,9.773,32.062,19.184,40.724z"/>
			</defs>
			<clipPath id="XMLID_193_">
				<use xlink:href="#XMLID_180_"  overflow="visible"/>
			</clipPath>
			<g id="XMLID_181_" clip-path="url(#XMLID_193_)">
				
					<line id="XMLID_150_" fill="none" stroke="#808080" stroke-width="0.5" stroke-linejoin="round" stroke-miterlimit="10" x1="-0.047" y1="21.674" x2="28.708" y2="26.674"/>
				
					<line fill="none" stroke="#808080" stroke-width="0.625" stroke-linejoin="round" stroke-miterlimit="10" x1="4.126" y1="29.362" x2="30.988" y2="31.045"/>
				
					<line fill="none" stroke="#808080" stroke-width="0.75" stroke-linejoin="round" stroke-miterlimit="10" x1="8.299" y1="37.049" x2="33.268" y2="35.417"/>
				
					<line fill="none" stroke="#808080" stroke-width="0.875" stroke-linejoin="round" stroke-miterlimit="10" x1="12.473" y1="44.737" x2="35.548" y2="39.788"/>
				
					<line id="XMLID_148_" fill="none" stroke="#808080" stroke-linejoin="round" stroke-miterlimit="10" x1="16.646" y1="52.424" x2="37.828" y2="44.159"/>
			</g>
		</g>
		<g id="XMLID_170_">
			<defs>
				<path id="XMLID_171_" d="M34.63,25.731c6.889,7.483,7.728,20.438,6.409,21.678l-27.9-28.445
					C13.139,18.964,25.967,16.321,34.63,25.731z"/>
			</defs>
			<clipPath id="XMLID_194_">
				<use xlink:href="#XMLID_171_"  overflow="visible"/>
			</clipPath>
			<g id="XMLID_172_" clip-path="url(#XMLID_194_)">
				
					<line id="XMLID_142_" fill="none" stroke="#808080" stroke-width="0.5" stroke-linejoin="round" stroke-miterlimit="10" x1="15.58" y1="6.501" x2="20.58" y2="35.256"/>
				
					<line fill="none" stroke="#808080" stroke-width="0.625" stroke-linejoin="round" stroke-miterlimit="10" x1="22.847" y1="11.357" x2="24.771" y2="37.56"/>
				
					<line fill="none" stroke="#808080" stroke-width="0.75" stroke-linejoin="round" stroke-miterlimit="10" x1="30.113" y1="16.213" x2="28.961" y2="39.863"/>
				
					<line fill="none" stroke="#808080" stroke-width="0.875" stroke-linejoin="round" stroke-miterlimit="10" x1="37.379" y1="21.068" x2="33.151" y2="42.167"/>
				
					<line id="XMLID_141_" fill="none" stroke="#808080" stroke-linejoin="round" stroke-miterlimit="10" x1="44.646" y1="25.924" x2="37.342" y2="44.471"/>
			</g>
		</g>
		
			<line id="XMLID_169_" fill="none" stroke="#808080" stroke-linecap="round" stroke-linejoin="round" stroke-miterlimit="10" x1="12.712" y1="19.233" x2="43.124" y2="49.537"/>
		<path fill="none" stroke="#808080" stroke-linejoin="round" stroke-miterlimit="10" d="M47.967,25.915
			c0.279-8.273-7.747-15.452-7.747-15.452s-7.231,5.333-8.547,12.676c0.816,0.625,1.618,1.323,2.394,2.117
			c4.106,4.198,6.127,9.659,6.977,14.09C43.604,37.214,47.762,32.119,47.967,25.915z"/>
		<path fill="none" stroke="#808080" stroke-linejoin="round" stroke-miterlimit="10" d="M41.043,39.347
			c-0.85-4.431-2.87-9.892-6.977-14.09c-0.775-0.793-1.577-1.491-2.394-2.117c-8.774-6.729-19.287-4.292-19.287-4.292
			s-2.767,11.884,7.049,21.92c6.607,6.756,20.592,7.563,21.68,6.409C41.615,46.647,41.827,43.435,41.043,39.347z"/>
		<g>
			<defs>
				<path id="SVGID_17_" d="M47.967,25.915c0.279-8.273-7.747-15.452-7.747-15.452s-7.231,5.333-8.547,12.676
					c0.816,0.625,1.618,1.323,2.394,2.117c4.106,4.198,6.127,9.659,6.977,14.09C43.604,37.214,47.762,32.119,47.967,25.915z"/>
			</defs>
			<clipPath id="SVGID_2_">
				<use xlink:href="#SVGID_17_"  overflow="visible"/>
			</clipPath>
			<g id="XMLID_115_" clip-path="url(#SVGID_2_)">
				<defs>
					<path id="XMLID_116_" d="M47.942,24.891c-0.277,8.272-7.352,14.588-8.751,14.508l1.001-29.962
						C40.192,9.437,48.218,16.616,47.942,24.891z"/>
				</defs>
				<clipPath id="XMLID_196_">
					<use xlink:href="#XMLID_116_"  overflow="visible"/>
				</clipPath>
				<g id="XMLID_117_" clip-path="url(#XMLID_196_)">
					
						<line id="XMLID_135_" fill="none" stroke="#808080" stroke-linejoin="round" stroke-miterlimit="10" x1="46.936" y1="8.881" x2="32.801" y2="29.202"/>
					
						<line fill="none" stroke="#808080" stroke-width="0.8333" stroke-linejoin="round" stroke-miterlimit="10" x1="50.113" y1="17.083" x2="34.138" y2="31.109"/>
					
						<line fill="none" stroke="#808080" stroke-width="0.6667" stroke-linejoin="round" stroke-miterlimit="10" x1="53.29" y1="25.285" x2="35.475" y2="33.017"/>
					
						<line id="XMLID_134_" fill="none" stroke="#808080" stroke-width="0.5" stroke-linejoin="round" stroke-miterlimit="10" x1="56.468" y1="33.487" x2="36.813" y2="34.924"/>
				</g>
			</g>
			<g id="XMLID_79_" clip-path="url(#SVGID_2_)">
				<defs>
					<path id="XMLID_80_" d="M31.437,23.945c-0.274,8.272,6.346,15.37,7.755,15.453l1.001-29.962
						C40.192,9.437,31.716,15.672,31.437,23.945z"/>
				</defs>
				<clipPath id="XMLID_197_">
					<use xlink:href="#XMLID_80_"  overflow="visible"/>
				</clipPath>
				<g id="XMLID_81_" clip-path="url(#XMLID_197_)">
					
						<line id="XMLID_114_" fill="none" stroke="#808080" stroke-linejoin="round" stroke-miterlimit="10" x1="31.356" y1="8.429" x2="48.216" y2="27.599"/>
					
						<line fill="none" stroke="#808080" stroke-width="0.8333" stroke-linejoin="round" stroke-miterlimit="10" x1="28.314" y1="16.174" x2="45.699" y2="30.946"/>
					
						<line fill="none" stroke="#808080" stroke-width="0.6667" stroke-linejoin="round" stroke-miterlimit="10" x1="25.271" y1="23.919" x2="43.184" y2="34.294"/>
					
						<line id="XMLID_113_" fill="none" stroke="#808080" stroke-width="0.5" stroke-linejoin="round" stroke-miterlimit="10" x1="22.229" y1="31.665" x2="40.668" y2="37.641"/>
				</g>
			</g>
			
				<line id="XMLID_74_" clip-path="url(#SVGID_2_)" fill="none" stroke="#808080" stroke-linejoin="round" stroke-miterlimit="10" x1="40.277" y1="9.612" x2="39.101" y2="39.564"/>
		</g>
	</g>
</g>
<g id="圖層_2">
</g>
</svg>
