<?xml version="1.0" encoding="utf-8"?>
<!-- Generator: Adobe Illustrator 16.0.0, SVG Export Plug-In . SVG Version: 6.00 Build 0)  -->
<!DOCTYPE svg PUBLIC "-//W3C//DTD SVG 1.1//EN" "http://www.w3.org/Graphics/SVG/1.1/DTD/svg11.dtd">
<svg version="1.1" xmlns="http://www.w3.org/2000/svg" xmlns:xlink="http://www.w3.org/1999/xlink" x="0px" y="0px" width="60px"
	 height="60px" viewBox="0 0 60 60" enable-background="new 0 0 60 60" xml:space="preserve">
<g id="圖層_3">
</g>
<g id="圖層_1">
	<g>
		<path fill="none" stroke="#808080" stroke-miterlimit="10" d="M56.041,25.891h-3.567c-1.841,0-3.344-1.49-3.344-3.323l0,0
			c0-1.829,1.503-3.321,3.344-3.321h3.567c1.836,0,3.34,1.492,3.34,3.321l0,0C59.381,24.4,57.877,25.891,56.041,25.891z
			 M49.425,30.126h-6.054c-0.755-6.764-8.688-8.141-13.007-5.539c-1.854-3.25-5.345-5.34-9.354-5.341
			c-5.952,0-10.775,4.116-10.775,10.88H6.327c-3.01,0-5.446,2.022-5.446,5.03v0.474c0,3.008,2.437,5.125,5.446,5.125h43.098
			c3.009,0,5.56-2.117,5.56-5.125v-0.474C54.984,32.148,52.434,30.126,49.425,30.126z"/>
		<g>
			<defs>
				<path id="SVGID_11_" d="M56.041,25.891h-3.567c-1.841,0-3.344-1.49-3.344-3.323l0,0c0-1.829,1.503-3.321,3.344-3.321h3.567
					c1.836,0,3.34,1.492,3.34,3.321l0,0C59.381,24.4,57.877,25.891,56.041,25.891z M49.425,30.126h-6.054
					c-0.755-6.764-8.688-8.141-13.007-5.539c-1.854-3.25-5.345-5.34-9.354-5.341c-5.952,0-10.775,4.116-10.775,10.88H6.327
					c-3.01,0-5.446,2.022-5.446,5.03v0.474c0,3.008,2.437,5.125,5.446,5.125h43.098c3.009,0,5.56-2.117,5.56-5.125v-0.474
					C54.984,32.148,52.434,30.126,49.425,30.126z"/>
			</defs>
			<clipPath id="SVGID_2_">
				<use xlink:href="#SVGID_11_"  overflow="visible"/>
			</clipPath>
			<g id="XMLID_161_" clip-path="url(#SVGID_2_)">
				<path id="XMLID_187_" fill="none" stroke="#808080" stroke-width="0.5" stroke-miterlimit="10" d="M0.881,62.579
					C2.99,52.435,8.534,47.052,20.707,44.314c13.29-2.989,21.565,10.259,32.057,8.69c14.041-2.098,13.241-26.771,16.203-27.979"/>
				<path fill="none" stroke="#808080" stroke-width="0.55" stroke-miterlimit="10" d="M0.319,59.145
					c2.461-9.823,7.953-15.033,19.342-17.782c12.87-3.106,21.012,9.06,31.15,7.818c13.339-1.634,13.308-23.736,16.852-25.496"/>
				<path fill="none" stroke="#808080" stroke-width="0.6" stroke-miterlimit="10" d="M-0.243,55.709
					c2.813-9.5,8.254-14.547,18.857-17.297c12.45-3.229,20.454,7.855,30.244,6.944c12.634-1.176,13.374-20.701,17.5-23.013"/>
				<path fill="none" stroke="#808080" stroke-width="0.65" stroke-miterlimit="10" d="M-0.806,52.274
					c3.163-9.179,8.553-14.071,18.374-16.813c12.029-3.359,19.896,6.647,29.337,6.072c11.925-0.727,13.44-17.667,18.148-20.529"/>
				<path fill="none" stroke="#808080" stroke-width="0.7" stroke-miterlimit="10" d="M-1.367,48.839
					c3.515-8.857,8.849-13.605,17.889-16.33c11.609-3.499,19.334,5.433,28.432,5.199C56.167,37.421,58.46,23.077,63.75,19.663"/>
				<path fill="none" stroke="#808080" stroke-width="0.75" stroke-miterlimit="10" d="M-1.93,45.405
					c3.866-8.536,9.145-13.151,17.404-15.846c11.188-3.65,18.771,4.478,27.525,4.326c10.5-0.183,13.574-11.597,19.445-15.563"/>
				<path fill="none" stroke="#808080" stroke-width="0.8" stroke-miterlimit="10" d="M-2.491,41.97
					c4.217-8.214,9.436-12.709,16.92-15.362c10.763-3.815,18.206,2.976,26.618,3.453c9.787,0.555,13.641-8.563,20.094-13.079"/>
				<path fill="none" stroke="#808080" stroke-width="0.85" stroke-miterlimit="10" d="M-3.054,38.535
					c4.568-7.893,9.724-12.28,16.437-14.878c10.332-3.998,17.641,1.73,25.712,2.58c9.072,0.955,13.706-5.528,20.742-10.596"/>
				<path fill="none" stroke="#808080" stroke-width="0.9" stroke-miterlimit="10" d="M-3.615,35.1
					c4.919-7.571,10.004-11.866,15.951-14.394c9.892-4.204,17.08,0.469,24.806,1.707c8.361,1.339,13.773-2.493,21.391-8.112"/>
				<path fill="none" stroke="#808080" stroke-width="0.95" stroke-miterlimit="10" d="M-4.178,31.665
					C1.093,24.416,6.1,20.199,11.29,17.755c9.434-4.442,16.523-0.81,23.898,0.833c7.656,1.706,13.84,0.542,22.039-5.629"/>
				<path id="XMLID_186_" fill="none" stroke="#808080" stroke-miterlimit="10" d="M-4.739,28.23
					C23.441-6.5,33.905,28.475,55.924,11.619"/>
			</g>
		</g>
	</g>
</g>
<g id="圖層_2">
</g>
</svg>
