<?xml version="1.0" encoding="utf-8"?>
<!-- Generator: Adobe Illustrator 16.0.0, SVG Export Plug-In . SVG Version: 6.00 Build 0)  -->
<!DOCTYPE svg PUBLIC "-//W3C//DTD SVG 1.1//EN" "http://www.w3.org/Graphics/SVG/1.1/DTD/svg11.dtd">
<svg version="1.1" id="圖層_1" xmlns="http://www.w3.org/2000/svg" xmlns:xlink="http://www.w3.org/1999/xlink" x="0px" y="0px"
	 width="32.936px" height="32.937px" viewBox="0 0 32.936 32.937" enable-background="new 0 0 32.936 32.937" xml:space="preserve">
<g>
	<path fill="#999999" d="M21.54,9.56h-9.679c-1.545,0-2.469,0.801-2.469,2.347v9.678c0,1.546,0.924,2.976,2.469,2.976h9.679
		c1.545,0,2.852-1.43,2.852-2.976v-9.678C24.392,10.36,23.084,9.56,21.54,9.56 M16.7,21.776c-2.773,0-5.031-2.258-5.031-5.031
		s2.258-5.03,5.031-5.03c2.775,0,5.031,2.257,5.031,5.03S19.474,21.776,16.7,21.776 M21.894,12.755c-0.657,0-1.191-0.533-1.191-1.19
		c0-0.656,0.534-1.19,1.191-1.19c0.655,0,1.191,0.534,1.191,1.19C23.084,12.222,22.548,12.755,21.894,12.755"/>
	<path fill="#999999" d="M16.7,13.841c-1.6,0-2.904,1.303-2.904,2.904c0,1.604,1.304,2.906,2.904,2.906
		c1.602,0,2.906-1.303,2.906-2.906C19.605,15.146,18.302,13.841,16.7,13.841"/>
	<path fill="#999999" d="M16.699,0.465c-8.966,0-16.236,7.27-16.236,16.236s7.27,16.235,16.236,16.235
		c8.967,0,16.237-7.269,16.237-16.235S25.666,0.465,16.699,0.465 M26.392,21.584c0,2.719-2.135,4.976-4.852,4.976h-9.679
		c-2.717,0-4.469-2.257-4.469-4.976v-9.677c0-2.717,1.752-5.348,4.469-5.348h9.679c2.717,0,4.852,2.631,4.852,5.348V21.584z"/>
</g>
</svg>
