<?xml version="1.0" encoding="utf-8"?>
<!-- Generator: Adobe Illustrator 16.0.0, SVG Export Plug-In . SVG Version: 6.00 Build 0)  -->
<!DOCTYPE svg PUBLIC "-//W3C//DTD SVG 1.1//EN" "http://www.w3.org/Graphics/SVG/1.1/DTD/svg11.dtd">
<svg version="1.1" id="圖層_1" xmlns="http://www.w3.org/2000/svg" xmlns:xlink="http://www.w3.org/1999/xlink" x="0px" y="0px"
	 width="32.936px" height="32.937px" viewBox="0 0 32.936 32.937" enable-background="new 0 0 32.936 32.937" xml:space="preserve">
<g>
	<path fill="#999999" d="M16.462,0C7.376,0,0,7.375,0,16.461c0,9.098,7.376,16.475,16.462,16.475
		c9.097,0,16.474-7.377,16.474-16.475C32.936,7.365,25.559,0,16.462,0 M20.725,16.326h-2.872v10h-4v-10h-2v-3.262l2.47-0.01
		l-0.011-2.129c0-2.773,0.752-4.6,4.03-4.6h2.511v4h-1.497c-1.266,0-1.503,0.145-1.503,1.031v1.969h3.232L20.725,16.326z"/>
</g>
</svg>
