<?xml version="1.0" encoding="utf-8"?>
<!-- Generator: Adobe Illustrator 16.0.0, SVG Export Plug-In . SVG Version: 6.00 Build 0)  -->
<!DOCTYPE svg PUBLIC "-//W3C//DTD SVG 1.1//EN" "http://www.w3.org/Graphics/SVG/1.1/DTD/svg11.dtd">
<svg version="1.1" id="圖層_1" xmlns="http://www.w3.org/2000/svg" xmlns:xlink="http://www.w3.org/1999/xlink" x="0px" y="0px"
	 width="32.936px" height="32.937px" viewBox="0 0 32.936 32.937" enable-background="new 0 0 32.936 32.937" xml:space="preserve">
<g>
	<path fill-rule="evenodd" clip-rule="evenodd" fill="#999999" d="M16.459,12.981c0-1.68-1.008-4.306-2.953-4.306
		c-0.607,0-1.265,0.309-1.639,0.776c-0.399,0.488-0.511,1.124-0.511,1.731c0,1.564,0.906,4.167,2.925,4.167
		c0.584,0,1.212-0.285,1.592-0.659C16.408,14.15,16.459,13.406,16.459,12.981"/>
	<path fill-rule="evenodd" clip-rule="evenodd" fill="#999999" d="M32.936,16.47C32.936,7.375,25.559,0,16.466,0
		C7.373,0-0.001,7.375-0.001,16.47c0,9.092,7.374,16.468,16.468,16.468C25.559,32.938,32.936,25.562,32.936,16.47 M21.775,13.327h2
		v2h2v1h-2v3h-2v-3h-2v-1h2V13.327z M8.125,22.397c0-0.851,0.417-2.04,1.798-2.859c1.456-0.891,3.424-1.009,4.475-1.074
		c-0.329-0.425-0.702-0.869-0.702-1.594c0-0.4,0.118-0.629,0.233-0.914c-0.256,0.023-0.518,0.045-0.752,0.045
		c-2.477,0-3.881-1.85-3.881-3.669c0-1.083,0.489-2.061,1.497-2.923c1.331-1.104,2.925-1.082,4.19-1.082h4.824h-1.499h-1.454
		c0.541,1,1.658,1.596,1.658,3.372c0,1.733-0.979,2.655-1.959,3.422c-0.308,0.31-0.657,0.688-0.657,1.201
		c0,0.519,0.35,0.823,0.605,1.034l0.84,0.67c1.031,0.863,1.968,1.666,1.968,3.281c0,2.201-2.128,4.427-6.154,4.427
		C9.765,25.741,8.125,24.128,8.125,22.397"/>
	<path fill-rule="evenodd" clip-rule="evenodd" fill="#999999" d="M15.195,19.136c-0.191-0.021-0.307-0.021-0.541-0.021
		c-0.211,0-1.469,0.052-2.457,0.381c-0.51,0.182-2.009,0.744-2.009,2.404c0,1.667,1.615,2.857,4.114,2.857
		c2.252,0,3.442-1.074,3.442-2.528C17.745,21.037,16.971,20.4,15.195,19.136"/>
</g>
</svg>
