<?xml version="1.0" encoding="utf-8"?>
<!-- Generator: Adobe Illustrator 16.0.0, SVG Export Plug-In . SVG Version: 6.00 Build 0)  -->
<!DOCTYPE svg PUBLIC "-//W3C//DTD SVG 1.1//EN" "http://www.w3.org/Graphics/SVG/1.1/DTD/svg11.dtd">
<svg version="1.1" id="圖層_1" xmlns="http://www.w3.org/2000/svg" xmlns:xlink="http://www.w3.org/1999/xlink" x="0px" y="0px"
	 width="32.936px" height="32.937px" viewBox="0 0 32.936 32.937" enable-background="new 0 0 32.936 32.937" xml:space="preserve">
<g>
	<path fill="#999999" d="M16.461-0.001C7.376-0.001,0,7.376,0,16.461c0,9.099,7.376,16.476,16.461,16.476
		c9.098,0,16.475-7.377,16.475-16.476C32.936,7.366,25.559-0.001,16.461-0.001 M24.664,12.774l0.01,0.522
		c0,5.356-4.08,11.536-11.539,11.536c-2.29,0-4.421-0.671-6.211-1.829c0.311,0.041,0.635,0.063,0.964,0.063
		c1.902,0,3.649-0.654,5.036-1.74c-1.778-0.029-3.265-1.206-3.788-2.813c0.25,0.051,0.502,0.071,0.764,0.071
		c0.371,0,0.608-0.052,0.94-0.142c-1.85-0.373-3.372-2.009-3.372-3.97v-0.051c1,0.303,1.291,0.482,1.955,0.504
		c-1.086-0.724-1.736-1.972-1.736-3.368c0-0.744,0.232-1.446,0.584-2.04c1.989,2.452,5,4.06,8.368,4.231
		c-0.072-0.293-0.093-0.604-0.093-0.926c0-2.23,1.813-4.05,4.054-4.05c1.166,0,2.223,0.494,2.966,1.276
		c0.916-0.181,1.789-0.513,2.574-0.976c-0.301,0.947-0.943,1.739-1.788,2.241c0.823-0.1,1.608-0.321,2.332-0.644
		C26.141,11.488,25.449,12.2,24.664,12.774"/>
</g>
</svg>
